<?xml version="1.0" encoding="UTF-8" standalone="no"?>
<!DOCTYPE svg PUBLIC "-//W3C//DTD SVG 1.1//EN"
 "http://www.w3.org/Graphics/SVG/1.1/DTD/svg11.dtd">
<!-- Generated by graphviz version 15.1.0 (20260618.0150)
 -->
<!-- Title: OBI Pages: 1 -->
<svg width="6164pt" height="3118pt"
 viewBox="0.00 0.00 6164.00 3118.00" xmlns="http://www.w3.org/2000/svg" xmlns:xlink="http://www.w3.org/1999/xlink">
<g id="graph0" class="graph" transform="scale(2.77778 2.77778) rotate(0) translate(4 1118.55)">
<title>OBI</title>
<polygon fill="white" stroke="none" points="-4,4 -4,-1118.55 2215,-1118.55 2215,4 -4,4"/>
<text xml:space="preserve" text-anchor="middle" x="1105.5" y="-1087.75" font-family="Malgun Gothic" font-size="24.00">OBI 온톨로지 구조 — 한국 도서의 띠지·뒷표지 (v2.3)</text>
<g id="clust1" class="cluster">
<title>cluster_copy</title>
<path fill="#fbf7ee" stroke="#9aa6b2" d="M20,-141.1C20,-141.1 835,-141.1 835,-141.1 841,-141.1 847,-147.1 847,-153.1 847,-153.1 847,-364.55 847,-364.55 847,-370.55 841,-376.55 835,-376.55 835,-376.55 20,-376.55 20,-376.55 14,-376.55 8,-370.55 8,-364.55 8,-364.55 8,-153.1 8,-153.1 8,-147.1 14,-141.1 20,-141.1"/>
<text xml:space="preserve" text-anchor="middle" x="427.5" y="-360.2" font-family="Malgun Gothic" font-size="13.00">띠지·뒷표지 마케팅 카피 박스</text>
</g>
<g id="clust3" class="cluster">
<title>cluster_agent</title>
<path fill="#fbf7ee" stroke="#9aa6b2" d="M867,-8C867,-8 1389,-8 1389,-8 1395,-8 1401,-14 1401,-20 1401,-20 1401,-222.65 1401,-222.65 1401,-228.65 1395,-234.65 1389,-234.65 1389,-234.65 867,-234.65 867,-234.65 861,-234.65 855,-228.65 855,-222.65 855,-222.65 855,-20 855,-20 855,-14 861,-8 867,-8"/>
<text xml:space="preserve" text-anchor="middle" x="1128" y="-218.3" font-family="Malgun Gothic" font-size="13.00">인물·기관 (Agent) 박스</text>
</g>
<g id="clust4" class="cluster">
<title>cluster_skos</title>
<path fill="#fbf7ee" stroke="#9aa6b2" d="M1971,-18.43C1971,-18.43 2191,-18.43 2191,-18.43 2197,-18.43 2203,-24.43 2203,-30.43 2203,-30.43 2203,-222.65 2203,-222.65 2203,-228.65 2197,-234.65 2191,-234.65 2191,-234.65 1971,-234.65 1971,-234.65 1965,-234.65 1959,-228.65 1959,-222.65 1959,-222.65 1959,-30.43 1959,-30.43 1959,-24.43 1965,-18.43 1971,-18.43"/>
<text xml:space="preserve" text-anchor="middle" x="2081" y="-218.3" font-family="Malgun Gothic" font-size="13.00">분류 체계 (SKOS Concept Schemes)</text>
</g>
<g id="clust5" class="cluster">
<title>cluster_series</title>
<path fill="#fbf7ee" stroke="#9aa6b2" d="M1454,-865.63C1454,-865.63 1652,-865.63 1652,-865.63 1658,-865.63 1664,-871.63 1664,-877.63 1664,-877.63 1664,-931.63 1664,-931.63 1664,-937.63 1658,-943.63 1652,-943.63 1652,-943.63 1454,-943.63 1454,-943.63 1448,-943.63 1442,-937.63 1442,-931.63 1442,-931.63 1442,-877.63 1442,-877.63 1442,-871.63 1448,-865.63 1454,-865.63"/>
<text xml:space="preserve" text-anchor="middle" x="1553" y="-927.28" font-family="Malgun Gothic" font-size="13.00">시리즈 박스</text>
</g>
<g id="clust6" class="cluster">
<title>cluster_lod</title>
<path fill="#fbf7ee" stroke="#9aa6b2" d="M1421,-13.3C1421,-13.3 1939,-13.3 1939,-13.3 1945,-13.3 1951,-19.3 1951,-25.3 1951,-25.3 1951,-89.55 1951,-89.55 1951,-95.55 1945,-101.55 1939,-101.55 1939,-101.55 1421,-101.55 1421,-101.55 1415,-101.55 1409,-95.55 1409,-89.55 1409,-89.55 1409,-25.3 1409,-25.3 1409,-19.3 1415,-13.3 1421,-13.3"/>
<text xml:space="preserve" text-anchor="middle" x="1680" y="-85.2" font-family="Malgun Gothic" font-size="13.00">외부 LOD 매핑 박스</text>
</g>
<g id="clust7" class="cluster">
<title>cluster_legend</title>
<path fill="#ffffff" stroke="#9aa6b2" d="M2008,-643.42C2008,-643.42 2118,-643.42 2118,-643.42 2124,-643.42 2130,-649.42 2130,-655.42 2130,-655.42 2130,-1054.3 2130,-1054.3 2130,-1060.3 2124,-1066.3 2118,-1066.3 2118,-1066.3 2008,-1066.3 2008,-1066.3 2002,-1066.3 1996,-1060.3 1996,-1054.3 1996,-1054.3 1996,-655.42 1996,-655.42 1996,-649.42 2002,-643.42 2008,-643.42"/>
<text xml:space="preserve" text-anchor="middle" x="2063" y="-1049.95" font-family="Malgun Gothic" font-size="13.00">Legend (범례)</text>
</g>
<!-- Series -->
<g id="node1" class="node">
<title>Series</title>
<ellipse fill="#f2c744" stroke="#b0851a" stroke-width="1.5" cx="1421" cy="-1014.3" rx="88.14" ry="28.43"/>
<text xml:space="preserve" text-anchor="middle" x="1421" y="-1019.4" font-family="Malgun Gothic" font-size="12.00">시리즈</text>
<text xml:space="preserve" text-anchor="middle" x="1421" y="-1002.9" font-family="Malgun Gothic" font-size="12.00">(obi:Series ⊂ Work)</text>
</g>
<!-- Work -->
<g id="node2" class="node">
<title>Work</title>
<ellipse fill="#f2c744" stroke="#b0851a" stroke-width="1.5" cx="1377" cy="-891.63" rx="50.49" ry="28.43"/>
<text xml:space="preserve" text-anchor="middle" x="1377" y="-896.73" font-family="Malgun Gothic" font-size="12.00">작품</text>
<text xml:space="preserve" text-anchor="middle" x="1377" y="-880.23" font-family="Malgun Gothic" font-size="12.00">(obi:Work)</text>
</g>
<!-- Series&#45;&gt;Work -->
<g id="edge4" class="edge">
<title>Series&#45;&gt;Work</title>
<path fill="none" stroke="#666666" d="M1410.91,-985.62C1404.76,-968.75 1396.83,-947.02 1390.19,-928.81"/>
<polygon fill="#666666" stroke="#666666" points="1392.94,-928.16 1387.57,-921.61 1387.68,-930.08 1392.94,-928.16"/>
<text xml:space="preserve" text-anchor="middle" x="1419.82" y="-956.38" font-family="Malgun Gothic" font-size="10.00">hasPart</text>
</g>
<!-- SType -->
<g id="node20" class="node">
<title>SType</title>
<path fill="#f6c9d0" stroke="#c57f8c" stroke-width="1.5" d="M1546.45,-909.63C1546.45,-909.63 1461.55,-909.63 1461.55,-909.63 1455.55,-909.63 1449.55,-903.63 1449.55,-897.63 1449.55,-897.63 1449.55,-885.63 1449.55,-885.63 1449.55,-879.63 1455.55,-873.63 1461.55,-873.63 1461.55,-873.63 1546.45,-873.63 1546.45,-873.63 1552.45,-873.63 1558.45,-879.63 1558.45,-885.63 1558.45,-885.63 1558.45,-897.63 1558.45,-897.63 1558.45,-903.63 1552.45,-909.63 1546.45,-909.63"/>
<text xml:space="preserve" text-anchor="middle" x="1504" y="-895.83" font-family="Malgun Gothic" font-size="9.00">시리즈 유형(seriesType)</text>
<text xml:space="preserve" text-anchor="middle" x="1504" y="-883.08" font-family="Malgun Gothic" font-size="9.00">저자연작·큐레이션·전집</text>
</g>
<!-- Series&#45;&gt;SType -->
<g id="edge18" class="edge">
<title>Series&#45;&gt;SType</title>
<path fill="none" stroke="#cccccc" stroke-dasharray="5,2" d="M1439.83,-985.92C1455.81,-962.69 1478.25,-930.07 1491.92,-910.19"/>
</g>
<!-- Cur -->
<g id="node21" class="node">
<title>Cur</title>
<path fill="#f6c9d0" stroke="#c57f8c" stroke-width="1.5" d="M1643.95,-909.63C1643.95,-909.63 1592.05,-909.63 1592.05,-909.63 1586.05,-909.63 1580.05,-903.63 1580.05,-897.63 1580.05,-897.63 1580.05,-885.63 1580.05,-885.63 1580.05,-879.63 1586.05,-873.63 1592.05,-873.63 1592.05,-873.63 1643.95,-873.63 1643.95,-873.63 1649.95,-873.63 1655.95,-879.63 1655.95,-885.63 1655.95,-885.63 1655.95,-897.63 1655.95,-897.63 1655.95,-903.63 1649.95,-909.63 1643.95,-909.63"/>
<text xml:space="preserve" text-anchor="middle" x="1618" y="-889.45" font-family="Malgun Gothic" font-size="9.00">기획자(curator)</text>
</g>
<!-- Series&#45;&gt;Cur -->
<g id="edge19" class="edge">
<title>Series&#45;&gt;Cur</title>
<path fill="none" stroke="#cccccc" stroke-dasharray="5,2" d="M1478.13,-992.18C1506.78,-980.19 1541.2,-963.59 1569,-943.63 1582.17,-934.17 1594.78,-920.91 1603.91,-910.28"/>
</g>
<!-- Mani -->
<g id="node3" class="node">
<title>Mani</title>
<ellipse fill="#f2c744" stroke="#b0851a" stroke-width="1.5" cx="1377" cy="-780.53" rx="83.37" ry="28.43"/>
<text xml:space="preserve" text-anchor="middle" x="1377" y="-785.63" font-family="Malgun Gothic" font-size="12.00">판본</text>
<text xml:space="preserve" text-anchor="middle" x="1377" y="-769.13" font-family="Malgun Gothic" font-size="12.00">(obi:Manifestation)</text>
</g>
<!-- Work&#45;&gt;Mani -->
<g id="edge5" class="edge">
<title>Work&#45;&gt;Mani</title>
<path fill="none" stroke="#666666" d="M1377,-862.53C1377,-849.17 1377,-833.01 1377,-818.65"/>
<polygon fill="#666666" stroke="#666666" points="1379.8,-819.04 1377,-811.04 1374.2,-819.04 1379.8,-819.04"/>
<text xml:space="preserve" text-anchor="middle" x="1416" y="-833.7" font-family="Malgun Gothic" font-size="10.00">hasManifestation</text>
</g>
<!-- WD -->
<g id="node24" class="node">
<title>WD</title>
<ellipse fill="#a9d08e" stroke="#4e7a3c" stroke-width="1.5" cx="1901" cy="-44.43" rx="41.99" ry="18"/>
<text xml:space="preserve" text-anchor="middle" x="1901" y="-42.25" font-family="Malgun Gothic" font-size="9.00">Wikidata Q&#45;id</text>
</g>
<!-- Work&#45;&gt;WD -->
<g id="edge22" class="edge">
<title>Work&#45;&gt;WD</title>
<path fill="none" stroke="#2f6e2f" d="M1414.2,-871.87C1421.62,-868.63 1429.46,-865.56 1437,-863.2 1535.9,-832.35 1896,-885.13 1896,-781.53 1896,-781.53 1896,-781.53 1896,-171.22 1896,-137.07 1897.86,-97.74 1899.31,-72.28"/>
<polygon fill="#2f6e2f" stroke="#2f6e2f" points="1902.1,-72.58 1899.78,-64.43 1896.51,-72.25 1902.1,-72.58"/>
<text xml:space="preserve" text-anchor="middle" x="1922.62" y="-500.4" font-family="Malgun Gothic" font-size="10.00" fill="#2f6e2f">owl:sameAs</text>
</g>
<!-- Image -->
<g id="node4" class="node">
<title>Image</title>
<ellipse fill="#f2c744" stroke="#b0851a" stroke-width="1.5" cx="1377" cy="-669.42" rx="54.2" ry="28.43"/>
<text xml:space="preserve" text-anchor="middle" x="1377" y="-674.52" font-family="Malgun Gothic" font-size="12.00">촬영본</text>
<text xml:space="preserve" text-anchor="middle" x="1377" y="-658.02" font-family="Malgun Gothic" font-size="12.00">(obi:Image)</text>
</g>
<!-- Mani&#45;&gt;Image -->
<g id="edge6" class="edge">
<title>Mani&#45;&gt;Image</title>
<path fill="none" stroke="#666666" d="M1377,-751.43C1377,-738.07 1377,-721.91 1377,-707.55"/>
<polygon fill="#666666" stroke="#666666" points="1379.8,-707.94 1377,-699.94 1374.2,-707.94 1379.8,-707.94"/>
<text xml:space="preserve" text-anchor="middle" x="1399.12" y="-722.6" font-family="Malgun Gothic" font-size="10.00">hasImage</text>
</g>
<!-- ISBN -->
<g id="node12" class="node">
<title>ISBN</title>
<path fill="#f6c9d0" stroke="#c57f8c" stroke-width="1.5" d="M1288.95,-687.42C1288.95,-687.42 1147.05,-687.42 1147.05,-687.42 1141.05,-687.42 1135.05,-681.42 1135.05,-675.42 1135.05,-675.42 1135.05,-663.42 1135.05,-663.42 1135.05,-657.42 1141.05,-651.42 1147.05,-651.42 1147.05,-651.42 1288.95,-651.42 1288.95,-651.42 1294.95,-651.42 1300.95,-657.42 1300.95,-663.42 1300.95,-663.42 1300.95,-675.42 1300.95,-675.42 1300.95,-681.42 1294.95,-687.42 1288.95,-687.42"/>
<text xml:space="preserve" text-anchor="middle" x="1218" y="-666.27" font-family="Malgun Gothic" font-size="12.00">ISBN13 · 출판일 · 표지 제목</text>
</g>
<!-- Mani&#45;&gt;ISBN -->
<g id="edge12" class="edge">
<title>Mani&#45;&gt;ISBN</title>
<path fill="none" stroke="#cccccc" stroke-dasharray="5,2" d="M1340.52,-754.5C1310.82,-734.11 1269.64,-705.86 1243.41,-687.86"/>
</g>
<!-- KMO -->
<g id="node25" class="node">
<title>KMO</title>
<ellipse fill="#a9d08e" stroke="#4e7a3c" stroke-width="1.5" cx="1804" cy="-44.43" rx="32.53" ry="18"/>
<text xml:space="preserve" text-anchor="middle" x="1804" y="-42.25" font-family="Malgun Gothic" font-size="9.00">NLK KMO</text>
</g>
<!-- Mani&#45;&gt;KMO -->
<g id="edge23" class="edge">
<title>Mani&#45;&gt;KMO</title>
<path fill="none" stroke="#2f6e2f" d="M1435.98,-760.04C1474.62,-743.14 1518,-714.38 1518,-670.42 1518,-670.42 1518,-670.42 1518,-171.22 1518,-59.3 1667.19,-164.11 1760,-101.55 1771.98,-93.47 1782.18,-81.1 1789.73,-70.03"/>
<polygon fill="#2f6e2f" stroke="#2f6e2f" points="1791.93,-71.78 1793.93,-63.54 1787.23,-68.73 1791.93,-71.78"/>
<text xml:space="preserve" text-anchor="middle" x="1554.75" y="-444.85" font-family="Malgun Gothic" font-size="10.00" fill="#2f6e2f">skos:closeMatch</text>
</g>
<!-- Cover -->
<g id="node5" class="node">
<title>Cover</title>
<ellipse fill="#f2c744" stroke="#b0851a" stroke-width="1.5" cx="1180" cy="-558.32" rx="73.29" ry="28.43"/>
<text xml:space="preserve" text-anchor="middle" x="1180" y="-563.42" font-family="Malgun Gothic" font-size="12.00">표지 카피</text>
<text xml:space="preserve" text-anchor="middle" x="1180" y="-546.92" font-family="Malgun Gothic" font-size="12.00">(obi:CoverCopy)</text>
</g>
<!-- Image&#45;&gt;Cover -->
<g id="edge7" class="edge">
<title>Image&#45;&gt;Cover</title>
<path fill="none" stroke="#2f6e2f" stroke-width="1.8" d="M1339.95,-647.9C1309.18,-630.86 1265.09,-606.45 1231,-587.56"/>
<polygon fill="#2f6e2f" stroke="#2f6e2f" stroke-width="1.8" points="1232.4,-585.14 1224.05,-583.72 1229.69,-590.04 1232.4,-585.14"/>
<text xml:space="preserve" text-anchor="middle" x="1322.54" y="-611.5" font-family="Malgun Gothic" font-size="10.00" fill="#2f6e2f">hasCoverCopy</text>
</g>
<!-- Imgs -->
<g id="node13" class="node">
<title>Imgs</title>
<path fill="#f6c9d0" stroke="#c57f8c" stroke-width="1.5" d="M1444.95,-576.32C1444.95,-576.32 1309.05,-576.32 1309.05,-576.32 1303.05,-576.32 1297.05,-570.32 1297.05,-564.32 1297.05,-564.32 1297.05,-552.32 1297.05,-552.32 1297.05,-546.32 1303.05,-540.32 1309.05,-540.32 1309.05,-540.32 1444.95,-540.32 1444.95,-540.32 1450.95,-540.32 1456.95,-546.32 1456.95,-552.32 1456.95,-552.32 1456.95,-564.32 1456.95,-564.32 1456.95,-570.32 1450.95,-576.32 1444.95,-576.32"/>
<text xml:space="preserve" text-anchor="middle" x="1377" y="-555.17" font-family="Malgun Gothic" font-size="12.00">앞/뒷면 이미지 · OCR 출처</text>
</g>
<!-- Image&#45;&gt;Imgs -->
<g id="edge13" class="edge">
<title>Image&#45;&gt;Imgs</title>
<path fill="none" stroke="#cccccc" stroke-dasharray="5,2" d="M1377,-640.33C1377,-620.25 1377,-593.86 1377,-576.75"/>
</g>
<!-- Obi -->
<g id="node6" class="node">
<title>Obi</title>
<ellipse fill="#f2c744" stroke="#b0851a" stroke-width="1.5" cx="931" cy="-447.22" rx="112.54" ry="28.43"/>
<text xml:space="preserve" text-anchor="middle" x="931" y="-452.32" font-family="Malgun Gothic" font-size="12.00">띠지 (obi:Obi)</text>
<text xml:space="preserve" text-anchor="middle" x="931" y="-435.82" font-family="Malgun Gothic" font-size="12.00">isEphemeral=true · 소모성</text>
</g>
<!-- Cover&#45;&gt;Obi -->
<g id="edge8" class="edge">
<title>Cover&#45;&gt;Obi</title>
<path fill="none" stroke="#b03030" stroke-width="1.8" d="M1131.99,-536.29C1093.44,-519.4 1038.93,-495.51 996.39,-476.87"/>
<polygon fill="#b03030" stroke="#b03030" stroke-width="1.8" points="997.63,-474.36 989.18,-473.71 995.39,-479.49 997.63,-474.36"/>
<text xml:space="preserve" text-anchor="middle" x="1104.91" y="-500.4" font-family="Malgun Gothic" font-size="10.00" fill="#b03030">rdfs:subClassOf</text>
</g>
<!-- BCover -->
<g id="node7" class="node">
<title>BCover</title>
<ellipse fill="#f2c744" stroke="#b0851a" stroke-width="1.5" cx="1180" cy="-447.22" rx="114.13" ry="28.43"/>
<text xml:space="preserve" text-anchor="middle" x="1180" y="-452.32" font-family="Malgun Gothic" font-size="12.00">뒷표지 (obi:BCover)</text>
<text xml:space="preserve" text-anchor="middle" x="1180" y="-435.82" font-family="Malgun Gothic" font-size="12.00">isEphemeral=false · 영구성</text>
</g>
<!-- Cover&#45;&gt;BCover -->
<g id="edge9" class="edge">
<title>Cover&#45;&gt;BCover</title>
<path fill="none" stroke="#b03030" stroke-width="1.8" d="M1180,-529.23C1180,-516.25 1180,-500.63 1180,-486.59"/>
<polygon fill="#b03030" stroke="#b03030" stroke-width="1.8" points="1182.8,-486.95 1180,-478.95 1177.2,-486.95 1182.8,-486.95"/>
<text xml:space="preserve" text-anchor="middle" x="1214.5" y="-500.4" font-family="Malgun Gothic" font-size="10.00" fill="#b03030">rdfs:subClassOf</text>
</g>
<!-- Blk -->
<g id="node8" class="node">
<title>Blk</title>
<polygon fill="#bdd7ee" stroke="#3e78b2" stroke-width="1.5" points="838.62,-309.72 811.31,-342.55 756.69,-342.55 729.38,-309.72 756.69,-276.9 811.31,-276.9 838.62,-309.72"/>
<text xml:space="preserve" text-anchor="middle" x="784" y="-314.82" font-family="Malgun Gothic" font-size="12.00">카피 블록</text>
<text xml:space="preserve" text-anchor="middle" x="784" y="-298.32" font-family="Malgun Gothic" font-size="12.00">(bnode)</text>
</g>
<!-- Obi&#45;&gt;Blk -->
<g id="edge10" class="edge">
<title>Obi&#45;&gt;Blk</title>
<path fill="none" stroke="#3e78b2" stroke-width="1.5" d="M901.61,-419.13C878.83,-398.13 847.08,-368.87 822.31,-346.03"/>
<polygon fill="#3e78b2" stroke="#3e78b2" stroke-width="1.5" points="824.31,-344.07 816.53,-340.71 820.52,-348.19 824.31,-344.07"/>
<text xml:space="preserve" text-anchor="middle" x="922.01" y="-389.3" font-family="Malgun Gothic" font-size="10.00" fill="#16407a">hasMarketingCopy</text>
</g>
<!-- BCover&#45;&gt;Blk -->
<g id="edge11" class="edge">
<title>BCover&#45;&gt;Blk</title>
<path fill="none" stroke="#3e78b2" stroke-width="1.5" d="M1113.72,-423.54C1035.6,-396.81 907.41,-352.95 836.06,-328.54"/>
<polygon fill="#3e78b2" stroke="#3e78b2" stroke-width="1.5" points="837,-325.9 828.53,-325.96 835.19,-331.2 837,-325.9"/>
<text xml:space="preserve" text-anchor="middle" x="1083.36" y="-389.3" font-family="Malgun Gothic" font-size="10.00" fill="#16407a">hasMarketingCopy</text>
</g>
<!-- Blk&#45;&gt;Series -->
<g id="edge27" class="edge">
<title>Blk&#45;&gt;Series</title>
<path fill="none" stroke="#777777" d="M784,-343.03C784,-370.48 784,-410.94 784,-446.22 784,-892.63 784,-892.63 784,-892.63 784,-947.19 1149.46,-988.33 1326.75,-1005.08"/>
<polygon fill="#777777" stroke="#777777" points="1326.35,-1007.85 1334.58,-1005.81 1326.87,-1002.28 1326.35,-1007.85"/>
<text xml:space="preserve" text-anchor="middle" x="814.75" y="-667.05" font-family="Malgun Gothic" font-size="10.00">refersToSeries</text>
</g>
<!-- CText -->
<g id="node9" class="node">
<title>CText</title>
<path fill="#f6c9d0" stroke="#c57f8c" stroke-width="1.5" d="M150.2,-190.22C150.2,-190.22 27.8,-190.22 27.8,-190.22 21.8,-190.22 15.8,-184.22 15.8,-178.22 15.8,-178.22 15.8,-166.22 15.8,-166.22 15.8,-160.22 21.8,-154.22 27.8,-154.22 27.8,-154.22 150.2,-154.22 150.2,-154.22 156.2,-154.22 162.2,-160.22 162.2,-166.22 162.2,-166.22 162.2,-178.22 162.2,-178.22 162.2,-184.22 156.2,-190.22 150.2,-190.22"/>
<text xml:space="preserve" text-anchor="middle" x="89" y="-176.42" font-family="Malgun Gothic" font-size="9.00">인쇄 텍스트(contentText)</text>
<text xml:space="preserve" text-anchor="middle" x="89" y="-163.67" font-family="Malgun Gothic" font-size="9.00">원본 출처(sourceText) · Raw Text</text>
</g>
<!-- Blk&#45;&gt;CText -->
<g id="edge1" class="edge">
<title>Blk&#45;&gt;CText</title>
<path fill="none" stroke="#cccccc" stroke-dasharray="5,2" d="M731.69,-305.84C603.19,-298.2 275.11,-275.22 174,-234.65 148.65,-224.48 123.83,-205.14 107.61,-190.87"/>
</g>
<!-- Surf -->
<g id="node10" class="node">
<title>Surf</title>
<ellipse fill="#f2c744" stroke="#b0851a" stroke-width="1.5" cx="243" cy="-172.22" rx="58.44" ry="23.12"/>
<text xml:space="preserve" text-anchor="middle" x="243" y="-176.42" font-family="Malgun Gothic" font-size="9.00">표지 위치</text>
<text xml:space="preserve" text-anchor="middle" x="243" y="-163.67" font-family="Malgun Gothic" font-size="9.00">(SurfaceScheme)</text>
</g>
<!-- Blk&#45;&gt;Surf -->
<g id="edge2" class="edge">
<title>Blk&#45;&gt;Surf</title>
<path fill="none" stroke="#b03030" d="M732.92,-304.37C626.77,-294.73 386.06,-269.65 312,-234.65 295.36,-226.79 279.78,-213.63 267.64,-201.51"/>
<polygon fill="#b03030" stroke="#b03030" points="269.9,-199.81 262.32,-196.01 265.87,-203.7 269.9,-199.81"/>
<text xml:space="preserve" text-anchor="middle" x="416.64" y="-247.4" font-family="Malgun Gothic" font-size="10.00" fill="#b03030">printedOn ★신규</text>
</g>
<!-- Blocks -->
<g id="node11" class="node">
<title>Blocks</title>
<path fill="#fff7e6" stroke="#e0b250" stroke-width="1.5" d="M826.7,-190.22C826.7,-190.22 335.3,-190.22 335.3,-190.22 329.3,-190.22 323.3,-184.22 323.3,-178.22 323.3,-178.22 323.3,-166.22 323.3,-166.22 323.3,-160.22 329.3,-154.22 335.3,-154.22 335.3,-154.22 826.7,-154.22 826.7,-154.22 832.7,-154.22 838.7,-160.22 838.7,-166.22 838.7,-166.22 838.7,-178.22 838.7,-178.22 838.7,-184.22 832.7,-190.22 826.7,-190.22"/>
<text xml:space="preserve" text-anchor="middle" x="581" y="-176.42" font-family="Malgun Gothic" font-size="9.00">마케팅 카피 블록 11종 &#160;(domain=CoverCopy → 띠지·뒷표지 공유 상속)</text>
<text xml:space="preserve" text-anchor="middle" x="581" y="-163.67" font-family="Malgun Gothic" font-size="9.00">①출판사 카피 ②추천사 ③언론 평 ④매체 언급 ⑤수상 ⑥선정 ⑦판매 실적 ⑧영상화 ⑨시리즈 표기 ⑩작가의 말 ⑪본문 발췌</text>
</g>
<!-- Blk&#45;&gt;Blocks -->
<g id="edge3" class="edge">
<title>Blk&#45;&gt;Blocks</title>
<path fill="none" stroke="#cccccc" stroke-dasharray="5,2" d="M749.1,-285.43C708.86,-258.57 643.61,-215.01 607.37,-190.83"/>
</g>
<!-- Person -->
<g id="node15" class="node">
<title>Person</title>
<ellipse fill="#f2c744" stroke="#b0851a" stroke-width="1.5" cx="1335" cy="-172.22" rx="57.91" ry="28.43"/>
<text xml:space="preserve" text-anchor="middle" x="1335" y="-177.32" font-family="Malgun Gothic" font-size="12.00">사람</text>
<text xml:space="preserve" text-anchor="middle" x="1335" y="-160.82" font-family="Malgun Gothic" font-size="12.00">(foaf:Person)</text>
</g>
<!-- Blk&#45;&gt;Person -->
<g id="edge24" class="edge">
<title>Blk&#45;&gt;Person</title>
<path fill="none" stroke="#777777" d="M834.93,-304.57C942.68,-295.2 1190.07,-270.39 1266,-234.65 1280.92,-227.63 1294.99,-216.34 1306.48,-205.34"/>
<polygon fill="#777777" stroke="#777777" points="1308.15,-207.62 1311.86,-200 1304.21,-203.65 1308.15,-207.62"/>
<text xml:space="preserve" text-anchor="middle" x="1297.91" y="-247.4" font-family="Malgun Gothic" font-size="10.00">issuedBy / endorsedBy</text>
</g>
<!-- Org -->
<g id="node16" class="node">
<title>Org</title>
<ellipse fill="#f2c744" stroke="#b0851a" stroke-width="1.5" cx="1174" cy="-172.22" rx="81.25" ry="28.43"/>
<text xml:space="preserve" text-anchor="middle" x="1174" y="-177.32" font-family="Malgun Gothic" font-size="12.00">기관</text>
<text xml:space="preserve" text-anchor="middle" x="1174" y="-160.82" font-family="Malgun Gothic" font-size="12.00">(foaf:Organization)</text>
</g>
<!-- Blk&#45;&gt;Org -->
<g id="edge25" class="edge">
<title>Blk&#45;&gt;Org</title>
<path fill="none" stroke="#777777" d="M827.84,-296C877.85,-281.77 962.23,-258.63 1035.75,-242.65 1056.14,-238.22 1062.63,-242.39 1082,-234.65 1100.7,-227.18 1119.51,-215.53 1135.21,-204.37"/>
<polygon fill="#777777" stroke="#777777" points="1136.61,-206.81 1141.43,-199.84 1133.31,-202.29 1136.61,-206.81"/>
<text xml:space="preserve" text-anchor="middle" x="1077.38" y="-247.4" font-family="Malgun Gothic" font-size="10.00">endorserAffiliation</text>
</g>
<!-- Concept -->
<g id="node18" class="node">
<title>Concept</title>
<ellipse fill="#f2c744" stroke="#b0851a" stroke-width="1.5" cx="2057" cy="-172.22" rx="66.93" ry="28.43"/>
<text xml:space="preserve" text-anchor="middle" x="2057" y="-177.32" font-family="Malgun Gothic" font-size="12.00">분류 항목</text>
<text xml:space="preserve" text-anchor="middle" x="2057" y="-160.82" font-family="Malgun Gothic" font-size="12.00">(skos:Concept)</text>
</g>
<!-- Blk&#45;&gt;Concept -->
<g id="edge26" class="edge">
<title>Blk&#45;&gt;Concept</title>
<path fill="none" stroke="#777777" d="M835.23,-304.56C935.24,-296.32 1163.44,-277 1355,-256.9 1584.84,-232.78 1856.34,-198.87 1983.88,-182.63"/>
<polygon fill="#777777" stroke="#777777" points="1984.1,-185.42 1991.68,-181.63 1983.39,-179.87 1984.1,-185.42"/>
<text xml:space="preserve" text-anchor="middle" x="1574.27" y="-247.4" font-family="Malgun Gothic" font-size="10.00">endorserRole / awardStatus / adaptationType</text>
</g>
<!-- Agent -->
<g id="node14" class="node">
<title>Agent</title>
<ellipse fill="#f2c744" stroke="#b0851a" stroke-width="1.5" cx="1174" cy="-44.43" rx="55.79" ry="28.43"/>
<text xml:space="preserve" text-anchor="middle" x="1174" y="-49.53" font-family="Malgun Gothic" font-size="12.00">행위 주체</text>
<text xml:space="preserve" text-anchor="middle" x="1174" y="-33.03" font-family="Malgun Gothic" font-size="12.00">(foaf:Agent)</text>
</g>
<!-- Person&#45;&gt;Agent -->
<g id="edge14" class="edge">
<title>Person&#45;&gt;Agent</title>
<path fill="none" stroke="#999999" d="M1299.8,-149.22C1288.03,-141.5 1274.98,-132.57 1263.5,-123.8 1244.11,-108.99 1223.56,-91.16 1207.05,-76.25"/>
<polygon fill="#999999" stroke="#999999" points="1209.16,-74.38 1201.35,-71.07 1205.39,-78.53 1209.16,-74.38"/>
<text xml:space="preserve" text-anchor="middle" x="1288.25" y="-114.3" font-family="Malgun Gothic" font-size="10.00" fill="#999999">subClassOf</text>
</g>
<!-- KAC -->
<g id="node22" class="node">
<title>KAC</title>
<ellipse fill="#a9d08e" stroke="#4e7a3c" stroke-width="1.5" cx="1501" cy="-44.43" rx="83.9" ry="23.12"/>
<text xml:space="preserve" text-anchor="middle" x="1501" y="-48.63" font-family="Malgun Gothic" font-size="9.00">NLK KAC</text>
<text xml:space="preserve" text-anchor="middle" x="1501" y="-35.88" font-family="Malgun Gothic" font-size="9.00">(+ISNI·VIAF·Wikidata·LoC)</text>
</g>
<!-- Person&#45;&gt;KAC -->
<g id="edge20" class="edge">
<title>Person&#45;&gt;KAC</title>
<path fill="none" stroke="#2f6e2f" d="M1334.51,-143.17C1335.83,-131.19 1339.56,-118.03 1348.75,-109.55 1367.63,-92.13 1381.75,-110.02 1406,-101.55 1426.54,-94.37 1447.56,-82.51 1464.59,-71.54"/>
<polygon fill="#2f6e2f" stroke="#2f6e2f" points="1465.71,-74.15 1470.85,-67.41 1462.63,-69.47 1465.71,-74.15"/>
<text xml:space="preserve" text-anchor="middle" x="1375.38" y="-114.3" font-family="Malgun Gothic" font-size="10.00" fill="#2f6e2f">owl:sameAs</text>
</g>
<!-- Org&#45;&gt;Agent -->
<g id="edge15" class="edge">
<title>Org&#45;&gt;Agent</title>
<path fill="none" stroke="#999999" d="M1174,-143.31C1174,-125.47 1174,-102.14 1174,-82.72"/>
<polygon fill="#999999" stroke="#999999" points="1176.8,-82.78 1174,-74.78 1171.2,-82.78 1176.8,-82.78"/>
<text xml:space="preserve" text-anchor="middle" x="1198.75" y="-114.3" font-family="Malgun Gothic" font-size="10.00" fill="#999999">subClassOf</text>
</g>
<!-- KAB -->
<g id="node23" class="node">
<title>KAB</title>
<ellipse fill="#a9d08e" stroke="#4e7a3c" stroke-width="1.5" cx="1678" cy="-44.43" rx="71.17" ry="23.12"/>
<text xml:space="preserve" text-anchor="middle" x="1678" y="-48.63" font-family="Malgun Gothic" font-size="9.00">NLK KAB</text>
<text xml:space="preserve" text-anchor="middle" x="1678" y="-35.88" font-family="Malgun Gothic" font-size="9.00">(+Wikidata·VIAF·ISNI)</text>
</g>
<!-- Org&#45;&gt;KAB -->
<g id="edge21" class="edge">
<title>Org&#45;&gt;KAB</title>
<path fill="none" stroke="#2f6e2f" d="M1229.96,-151.02C1241.75,-147.3 1254.19,-143.75 1266,-141.1 1325.88,-127.65 1343.07,-137.01 1403,-123.8 1423.38,-119.3 1427.22,-113.31 1447.75,-109.55 1480.2,-103.61 1564.76,-112.15 1596,-101.55 1614.5,-95.27 1632.68,-83.56 1647.21,-72.46"/>
<polygon fill="#2f6e2f" stroke="#2f6e2f" points="1648.72,-74.83 1653.26,-67.68 1645.25,-70.44 1648.72,-74.83"/>
<text xml:space="preserve" text-anchor="middle" x="1474.38" y="-114.3" font-family="Malgun Gothic" font-size="10.00" fill="#2f6e2f">owl:sameAs</text>
</g>
<!-- Anon -->
<g id="node17" class="node">
<title>Anon</title>
<ellipse fill="#f2c744" stroke="#b0851a" stroke-width="1.5" cx="967" cy="-172.22" rx="103.52" ry="28.43"/>
<text xml:space="preserve" text-anchor="middle" x="967" y="-177.32" font-family="Malgun Gothic" font-size="12.00">익명 독자</text>
<text xml:space="preserve" text-anchor="middle" x="967" y="-160.82" font-family="Malgun Gothic" font-size="12.00">(obi:AnonymousReader)</text>
</g>
<!-- Anon&#45;&gt;Agent -->
<g id="edge16" class="edge">
<title>Anon&#45;&gt;Agent</title>
<path fill="none" stroke="#999999" d="M1009.14,-145.62C1044.53,-124.11 1094.89,-93.5 1130.62,-71.79"/>
<polygon fill="#999999" stroke="#999999" points="1131.79,-74.35 1137.17,-67.81 1128.88,-69.57 1131.79,-74.35"/>
</g>
<!-- Schemes -->
<g id="node19" class="node">
<title>Schemes</title>
<path fill="#fff7e6" stroke="#e0b250" stroke-width="1.5" d="M2183.07,-62.43C2183.07,-62.43 1978.92,-62.43 1978.92,-62.43 1972.92,-62.43 1966.92,-56.43 1966.92,-50.43 1966.92,-50.43 1966.92,-38.43 1966.92,-38.43 1966.92,-32.43 1972.92,-26.43 1978.92,-26.43 1978.92,-26.43 2183.07,-26.43 2183.07,-26.43 2189.07,-26.43 2195.07,-32.43 2195.07,-38.43 2195.07,-38.43 2195.07,-50.43 2195.07,-50.43 2195.07,-56.43 2189.07,-62.43 2183.07,-62.43"/>
<text xml:space="preserve" text-anchor="middle" x="2081" y="-48.63" font-family="Malgun Gothic" font-size="9.00">추천인 직군 · 영상화 유형 · 시리즈 유형 · 기관 역할</text>
<text xml:space="preserve" text-anchor="middle" x="2081" y="-35.88" font-family="Malgun Gothic" font-size="9.00">수상 상태 · 독자 유형 · 표지 위치(SurfaceScheme) ★</text>
</g>
<!-- Concept&#45;&gt;Schemes -->
<g id="edge17" class="edge">
<title>Concept&#45;&gt;Schemes</title>
<path fill="none" stroke="#999999" d="M2062.33,-143.31C2067.02,-118.69 2073.72,-83.61 2077.68,-62.81"/>
<text xml:space="preserve" text-anchor="middle" x="2090.03" y="-114.3" font-family="Malgun Gothic" font-size="10.00" fill="#999999">inScheme</text>
</g>
<!-- L1 -->
<g id="node26" class="node">
<title>L1</title>
<ellipse fill="#f2c744" stroke="#b0851a" stroke-width="1.5" cx="2063" cy="-1014.3" rx="42.44" ry="18"/>
<text xml:space="preserve" text-anchor="middle" x="2063" y="-1012.13" font-family="Malgun Gothic" font-size="9.00">클래스 (Class)</text>
</g>
<!-- L2 -->
<g id="node27" class="node">
<title>L2</title>
<polygon fill="#bdd7ee" stroke="#3e78b2" stroke-width="1.5" points="2121.89,-891.63 2092.44,-909.63 2033.56,-909.63 2004.11,-891.63 2033.56,-873.63 2092.44,-873.63 2121.89,-891.63"/>
<text xml:space="preserve" text-anchor="middle" x="2063" y="-889.45" font-family="Malgun Gothic" font-size="9.00">인스턴스 (bnode)</text>
</g>
<!-- L1&#45;&gt;L2 -->
<!-- L3 -->
<g id="node28" class="node">
<title>L3</title>
<ellipse fill="#a9d08e" stroke="#4e7a3c" stroke-width="1.5" cx="2063" cy="-780.53" rx="56.4" ry="18"/>
<text xml:space="preserve" text-anchor="middle" x="2063" y="-778.35" font-family="Malgun Gothic" font-size="9.00">외부 LOD (External)</text>
</g>
<!-- L2&#45;&gt;L3 -->
<!-- L4 -->
<g id="node29" class="node">
<title>L4</title>
<path fill="#f6c9d0" stroke="#c57f8c" stroke-width="1.5" d="M2088.2,-687.42C2088.2,-687.42 2037.8,-687.42 2037.8,-687.42 2031.8,-687.42 2025.8,-681.42 2025.8,-675.42 2025.8,-675.42 2025.8,-663.42 2025.8,-663.42 2025.8,-657.42 2031.8,-651.42 2037.8,-651.42 2037.8,-651.42 2088.2,-651.42 2088.2,-651.42 2094.2,-651.42 2100.2,-657.42 2100.2,-663.42 2100.2,-663.42 2100.2,-675.42 2100.2,-675.42 2100.2,-681.42 2094.2,-687.42 2088.2,-687.42"/>
<text xml:space="preserve" text-anchor="middle" x="2063" y="-667.25" font-family="Malgun Gothic" font-size="9.00">리터럴 (Literal)</text>
</g>
<!-- L3&#45;&gt;L4 -->
</g>
</svg>
